<svg width="1024" height="753" viewBox="0 0 1024 753" fill="none" xmlns="http://www.w3.org/2000/svg">
<g opacity="0.2" filter="url(#filter0_f_175_198)">
<ellipse cx="551.5" cy="108" rx="670.5" ry="350" fill="#338AF3"/>
</g>
<path d="M72.0349 344C73.5302 344 74.6622 344.63 75.4308 345.891C76.2134 347.138 76.6047 348.953 76.6047 351.336C76.6047 353.719 76.2134 355.541 75.4308 356.802C74.6622 358.063 73.5302 358.693 72.0349 358.693C70.5536 358.693 69.4216 358.063 68.639 356.802C67.8564 355.541 67.4651 353.719 67.4651 351.336C67.4651 348.967 67.8564 347.152 68.639 345.891C69.4216 344.63 70.5536 344 72.0349 344ZM68.9534 351.336C68.9534 353.026 69.1072 354.35 69.4146 355.306L74.0683 346.099C73.5791 345.448 72.9013 345.122 72.0349 345.122C71.0706 345.122 70.316 345.635 69.771 346.66C69.2259 347.672 68.9534 349.23 68.9534 351.336ZM72.0349 357.55C73.0131 357.55 73.7748 357.044 74.3198 356.033C74.8648 355.008 75.1373 353.442 75.1373 351.336C75.1373 349.549 74.9627 348.163 74.6133 347.18L69.9596 356.469C70.4627 357.19 71.1545 357.55 72.0349 357.55Z" fill="url(#paint0_linear_175_198)" fill-opacity="0.6"/>
<path d="M73.2926 381.135H76.3741V382.236H68.3874V381.135H71.9511V369.455L68.5551 371.471L67.9682 370.536L72.1607 367.959H73.2926V381.135Z" fill="url(#paint1_linear_175_198)" fill-opacity="0.6"/>
<path d="M72.0349 391.502C73.5302 391.502 74.6622 392.133 75.4308 393.393C76.2134 394.64 76.6047 396.455 76.6047 398.838C76.6047 401.221 76.2134 403.043 75.4308 404.304C74.6622 405.565 73.5302 406.195 72.0349 406.195C70.5536 406.195 69.4216 405.565 68.639 404.304C67.8564 403.043 67.4651 401.221 67.4651 398.838C67.4651 396.469 67.8564 394.654 68.639 393.393C69.4216 392.133 70.5536 391.502 72.0349 391.502ZM68.9534 398.838C68.9534 400.529 69.1072 401.852 69.4146 402.808L74.0683 393.601C73.5791 392.95 72.9013 392.624 72.0349 392.624C71.0706 392.624 70.316 393.137 69.771 394.162C69.2259 395.174 68.9534 396.732 68.9534 398.838ZM72.0349 405.052C73.0131 405.052 73.7748 404.546 74.3198 403.535C74.8648 402.51 75.1373 400.944 75.1373 398.838C75.1373 397.051 74.9627 395.665 74.6133 394.682L69.9596 403.971C70.4627 404.692 71.1545 405.052 72.0349 405.052Z" fill="url(#paint2_linear_175_198)" fill-opacity="0.6"/>
<path d="M73.2926 428.637H76.3741V429.738H68.3874V428.637H71.9511V416.957L68.5551 418.973L67.9682 418.038L72.1607 415.461H73.2926V428.637Z" fill="url(#paint3_linear_175_198)" fill-opacity="0.6"/>
<path d="M73.2926 452.388H76.3741V453.489H68.3874V452.388H71.9511V440.708L68.5551 442.724L67.9682 441.789L72.1607 439.212H73.2926V452.388Z" fill="url(#paint4_linear_175_198)" fill-opacity="0.6"/>
<path d="M72.0349 462.755C73.5302 462.755 74.6622 463.386 75.4308 464.646C76.2134 465.893 76.6047 467.708 76.6047 470.091C76.6047 472.474 76.2134 474.296 75.4308 475.557C74.6622 476.818 73.5302 477.448 72.0349 477.448C70.5536 477.448 69.4216 476.818 68.639 475.557C67.8564 474.296 67.4651 472.474 67.4651 470.091C67.4651 467.722 67.8564 465.907 68.639 464.646C69.4216 463.386 70.5536 462.755 72.0349 462.755ZM68.9534 470.091C68.9534 471.782 69.1072 473.105 69.4146 474.061L74.0683 464.854C73.5791 464.203 72.9013 463.878 72.0349 463.878C71.0706 463.878 70.316 464.39 69.771 465.415C69.2259 466.427 68.9534 467.985 68.9534 470.091ZM72.0349 476.305C73.0131 476.305 73.7748 475.8 74.3198 474.788C74.8648 473.763 75.1373 472.197 75.1373 470.091C75.1373 468.304 74.9627 466.919 74.6133 465.935L69.9596 475.225C70.4627 475.945 71.1545 476.305 72.0349 476.305Z" fill="url(#paint5_linear_175_198)" fill-opacity="0.6"/>
<path d="M73.2926 499.89H76.3741V500.992H68.3874V499.89H71.9511V488.21L68.5551 490.226L67.9682 489.291L72.1607 486.714H73.2926V499.89Z" fill="url(#paint6_linear_175_198)" fill-opacity="0.6"/>
<path d="M72.0349 510.257C73.5302 510.257 74.6622 510.888 75.4308 512.149C76.2134 513.396 76.6047 515.211 76.6047 517.594C76.6047 519.977 76.2134 521.798 75.4308 523.059C74.6622 524.32 73.5302 524.95 72.0349 524.95C70.5536 524.95 69.4216 524.32 68.639 523.059C67.8564 521.798 67.4651 519.977 67.4651 517.594C67.4651 515.224 67.8564 513.409 68.639 512.149C69.4216 510.888 70.5536 510.257 72.0349 510.257ZM68.9534 517.594C68.9534 519.284 69.1072 520.607 69.4146 521.563L74.0683 512.356C73.5791 511.705 72.9013 511.38 72.0349 511.38C71.0706 511.38 70.316 511.892 69.771 512.918C69.2259 513.929 68.9534 515.488 68.9534 517.594ZM72.0349 523.807C73.0131 523.807 73.7748 523.302 74.3198 522.29C74.8648 521.265 75.1373 519.699 75.1373 517.594C75.1373 515.806 74.9627 514.421 74.6133 513.437L69.9596 522.727C70.4627 523.447 71.1545 523.807 72.0349 523.807Z" fill="url(#paint7_linear_175_198)" fill-opacity="0.6"/>
<path d="M72.0349 534.008C73.5302 534.008 74.6622 534.639 75.4308 535.9C76.2134 537.147 76.6047 538.962 76.6047 541.345C76.6047 543.728 76.2134 545.549 75.4308 546.81C74.6622 548.071 73.5302 548.701 72.0349 548.701C70.5536 548.701 69.4216 548.071 68.639 546.81C67.8564 545.549 67.4651 543.728 67.4651 541.345C67.4651 538.975 67.8564 537.16 68.639 535.9C69.4216 534.639 70.5536 534.008 72.0349 534.008ZM68.9534 541.345C68.9534 543.035 69.1072 544.358 69.4146 545.314L74.0683 536.107C73.5791 535.456 72.9013 535.131 72.0349 535.131C71.0706 535.131 70.316 535.643 69.771 536.669C69.2259 537.68 68.9534 539.239 68.9534 541.345ZM72.0349 547.558C73.0131 547.558 73.7748 547.053 74.3198 546.041C74.8648 545.016 75.1373 543.451 75.1373 541.345C75.1373 539.557 74.9627 538.172 74.6133 537.188L69.9596 546.478C70.4627 547.198 71.1545 547.558 72.0349 547.558Z" fill="url(#paint8_linear_175_198)" fill-opacity="0.6"/>
<path d="M73.2926 571.143H76.3741V572.245H68.3874V571.143H71.9511V559.464L68.5551 561.48L67.9682 560.544L72.1607 557.967H73.2926V571.143Z" fill="url(#paint9_linear_175_198)" fill-opacity="0.6"/>
<path d="M72.0349 581.511C73.5302 581.511 74.6622 582.141 75.4308 583.402C76.2134 584.649 76.6047 586.464 76.6047 588.847C76.6047 591.23 76.2134 593.052 75.4308 594.312C74.6622 595.573 73.5302 596.204 72.0349 596.204C70.5536 596.204 69.4216 595.573 68.639 594.312C67.8564 593.052 67.4651 591.23 67.4651 588.847C67.4651 586.478 67.8564 584.663 68.639 583.402C69.4216 582.141 70.5536 581.511 72.0349 581.511ZM68.9534 588.847C68.9534 590.537 69.1072 591.86 69.4146 592.816L74.0683 583.61C73.5791 582.958 72.9013 582.633 72.0349 582.633C71.0706 582.633 70.316 583.145 69.771 584.171C69.2259 585.182 68.9534 586.741 68.9534 588.847ZM72.0349 595.061C73.0131 595.061 73.7748 594.555 74.3198 593.543C74.8648 592.518 75.1373 590.953 75.1373 588.847C75.1373 587.059 74.9627 585.674 74.6133 584.69L69.9596 593.98C70.4627 594.7 71.1545 595.061 72.0349 595.061Z" fill="url(#paint10_linear_175_198)" fill-opacity="0.6"/>
<path d="M73.2926 618.645H76.3741V619.747H68.3874V618.645H71.9511V606.966L68.5551 608.982L67.9682 608.046L72.1607 605.469H73.2926V618.645Z" fill="url(#paint11_linear_175_198)" fill-opacity="0.6"/>
<path d="M73.2926 642.396H76.3741V643.498H68.3874V642.396H71.9511V630.717L68.5551 632.733L67.9682 631.798L72.1607 629.221H73.2926V642.396Z" fill="url(#paint12_linear_175_198)" fill-opacity="0.6"/>
<path d="M110.965 391.502C112.46 391.502 113.592 392.133 114.361 393.393C115.144 394.64 115.535 396.455 115.535 398.838C115.535 401.221 115.144 403.043 114.361 404.304C113.592 405.565 112.46 406.195 110.965 406.195C109.484 406.195 108.352 405.565 107.569 404.304C106.787 403.043 106.395 401.221 106.395 398.838C106.395 396.469 106.787 394.654 107.569 393.393C108.352 392.133 109.484 391.502 110.965 391.502ZM107.884 398.838C107.884 400.529 108.037 401.852 108.345 402.808L112.998 393.601C112.509 392.95 111.832 392.624 110.965 392.624C110.001 392.624 109.246 393.137 108.701 394.162C108.156 395.174 107.884 396.732 107.884 398.838ZM110.965 405.052C111.943 405.052 112.705 404.546 113.25 403.535C113.795 402.51 114.068 400.944 114.068 398.838C114.068 397.051 113.893 395.665 113.543 394.682L108.89 403.971C109.393 404.692 110.085 405.052 110.965 405.052Z" fill="url(#paint13_linear_175_198)" fill-opacity="0.6"/>
<path d="M112.223 428.637H115.304V429.738H107.318V428.637H110.881V416.957L107.485 418.973L106.898 418.038L111.091 415.461H112.223V428.637Z" fill="url(#paint14_linear_175_198)" fill-opacity="0.6"/>
<path d="M110.965 439.004C112.46 439.004 113.592 439.635 114.361 440.895C115.144 442.142 115.535 443.957 115.535 446.34C115.535 448.723 115.144 450.545 114.361 451.806C113.592 453.067 112.46 453.697 110.965 453.697C109.484 453.697 108.352 453.067 107.569 451.806C106.787 450.545 106.395 448.723 106.395 446.34C106.395 443.971 106.787 442.156 107.569 440.895C108.352 439.635 109.484 439.004 110.965 439.004ZM107.884 446.34C107.884 448.031 108.037 449.354 108.345 450.31L112.998 441.103C112.509 440.452 111.832 440.126 110.965 440.126C110.001 440.126 109.246 440.639 108.701 441.664C108.156 442.676 107.884 444.234 107.884 446.34ZM110.965 452.554C111.943 452.554 112.705 452.049 113.25 451.037C113.795 450.012 114.068 448.446 114.068 446.34C114.068 444.553 113.893 443.168 113.543 442.184L108.89 451.474C109.393 452.194 110.085 452.554 110.965 452.554Z" fill="url(#paint15_linear_175_198)" fill-opacity="0.6"/>
<path d="M110.965 462.755C112.46 462.755 113.592 463.386 114.361 464.646C115.144 465.893 115.535 467.708 115.535 470.091C115.535 472.474 115.144 474.296 114.361 475.557C113.592 476.818 112.46 477.448 110.965 477.448C109.484 477.448 108.352 476.818 107.569 475.557C106.787 474.296 106.395 472.474 106.395 470.091C106.395 467.722 106.787 465.907 107.569 464.646C108.352 463.386 109.484 462.755 110.965 462.755ZM107.884 470.091C107.884 471.782 108.037 473.105 108.345 474.061L112.998 464.854C112.509 464.203 111.832 463.878 110.965 463.878C110.001 463.878 109.246 464.39 108.701 465.415C108.156 466.427 107.884 467.985 107.884 470.091ZM110.965 476.305C111.943 476.305 112.705 475.8 113.25 474.788C113.795 473.763 114.068 472.197 114.068 470.091C114.068 468.304 113.893 466.919 113.543 465.935L108.89 475.225C109.393 475.945 110.085 476.305 110.965 476.305Z" fill="url(#paint16_linear_175_198)" fill-opacity="0.6"/>
<path d="M112.223 499.89H115.304V500.992H107.318V499.89H110.881V488.21L107.485 490.226L106.898 489.291L111.091 486.714H112.223V499.89Z" fill="url(#paint17_linear_175_198)" fill-opacity="0.6"/>
<path d="M110.965 510.257C112.46 510.257 113.592 510.888 114.361 512.149C115.144 513.396 115.535 515.211 115.535 517.594C115.535 519.977 115.144 521.798 114.361 523.059C113.592 524.32 112.46 524.95 110.965 524.95C109.484 524.95 108.352 524.32 107.569 523.059C106.787 521.798 106.395 519.977 106.395 517.594C106.395 515.224 106.787 513.409 107.569 512.149C108.352 510.888 109.484 510.257 110.965 510.257ZM107.884 517.594C107.884 519.284 108.037 520.607 108.345 521.563L112.998 512.356C112.509 511.705 111.832 511.38 110.965 511.38C110.001 511.38 109.246 511.892 108.701 512.918C108.156 513.929 107.884 515.488 107.884 517.594ZM110.965 523.807C111.943 523.807 112.705 523.302 113.25 522.29C113.795 521.265 114.068 519.699 114.068 517.594C114.068 515.806 113.893 514.421 113.543 513.437L108.89 522.727C109.393 523.447 110.085 523.807 110.965 523.807Z" fill="url(#paint18_linear_175_198)" fill-opacity="0.6"/>
<path d="M112.223 547.392H115.304V548.494H107.318V547.392H110.881V535.713L107.485 537.728L106.898 536.793L111.091 534.216H112.223V547.392Z" fill="url(#paint19_linear_175_198)" fill-opacity="0.6"/>
<path d="M110.965 557.76C112.46 557.76 113.592 558.39 114.361 559.651C115.144 560.898 115.535 562.713 115.535 565.096C115.535 567.479 115.144 569.301 114.361 570.561C113.592 571.822 112.46 572.453 110.965 572.453C109.484 572.453 108.352 571.822 107.569 570.561C106.787 569.301 106.395 567.479 106.395 565.096C106.395 562.726 106.787 560.911 107.569 559.651C108.352 558.39 109.484 557.76 110.965 557.76ZM107.884 565.096C107.884 566.786 108.037 568.109 108.345 569.065L112.998 559.859C112.509 559.207 111.832 558.882 110.965 558.882C110.001 558.882 109.246 559.394 108.701 560.42C108.156 561.431 107.884 562.99 107.884 565.096ZM110.965 571.31C111.943 571.31 112.705 570.804 113.25 569.792C113.795 568.767 114.068 567.202 114.068 565.096C114.068 563.308 113.893 561.923 113.543 560.939L108.89 570.229C109.393 570.949 110.085 571.31 110.965 571.31Z" fill="url(#paint20_linear_175_198)" fill-opacity="0.6"/>
<path d="M110.965 581.511C112.46 581.511 113.592 582.141 114.361 583.402C115.144 584.649 115.535 586.464 115.535 588.847C115.535 591.23 115.144 593.052 114.361 594.312C113.592 595.573 112.46 596.204 110.965 596.204C109.484 596.204 108.352 595.573 107.569 594.312C106.787 593.052 106.395 591.23 106.395 588.847C106.395 586.478 106.787 584.663 107.569 583.402C108.352 582.141 109.484 581.511 110.965 581.511ZM107.884 588.847C107.884 590.537 108.037 591.86 108.345 592.816L112.998 583.61C112.509 582.958 111.832 582.633 110.965 582.633C110.001 582.633 109.246 583.145 108.701 584.171C108.156 585.182 107.884 586.741 107.884 588.847ZM110.965 595.061C111.943 595.061 112.705 594.555 113.25 593.543C113.795 592.518 114.068 590.953 114.068 588.847C114.068 587.059 113.893 585.674 113.543 584.69L108.89 593.98C109.393 594.7 110.085 595.061 110.965 595.061Z" fill="url(#paint21_linear_175_198)" fill-opacity="0.6"/>
<path d="M112.223 618.645H115.304V619.747H107.318V618.645H110.881V606.966L107.485 608.982L106.898 608.046L111.091 605.469H112.223V618.645Z" fill="url(#paint22_linear_175_198)" fill-opacity="0.6"/>
<path d="M110.965 629.013C112.46 629.013 113.592 629.643 114.361 630.904C115.144 632.151 115.535 633.966 115.535 636.349C115.535 638.732 115.144 640.554 114.361 641.815C113.592 643.075 112.46 643.706 110.965 643.706C109.484 643.706 108.352 643.075 107.569 641.815C106.787 640.554 106.395 638.732 106.395 636.349C106.395 633.98 106.787 632.165 107.569 630.904C108.352 629.643 109.484 629.013 110.965 629.013ZM107.884 636.349C107.884 638.039 108.037 639.362 108.345 640.318L112.998 631.112C112.509 630.461 111.832 630.135 110.965 630.135C110.001 630.135 109.246 630.648 108.701 631.673C108.156 632.684 107.884 634.243 107.884 636.349ZM110.965 642.563C111.943 642.563 112.705 642.057 113.25 641.046C113.795 640.02 114.068 638.455 114.068 636.349C114.068 634.562 113.893 633.176 113.543 632.192L108.89 641.482C109.393 642.202 110.085 642.563 110.965 642.563Z" fill="url(#paint23_linear_175_198)" fill-opacity="0.6"/>
<path d="M112.223 666.147H115.304V667.249H107.318V666.147H110.881V654.468L107.485 656.484L106.898 655.549L111.091 652.972H112.223V666.147Z" fill="url(#paint24_linear_175_198)" fill-opacity="0.6"/>
<path d="M112.223 689.899H115.304V691H107.318V689.899H110.881V678.219L107.485 680.235L106.898 679.3L111.091 676.723H112.223V689.899Z" fill="url(#paint25_linear_175_198)" fill-opacity="0.6"/>
<path d="M52.5698 415.253C54.0651 415.253 55.1971 415.884 55.9657 417.144C56.7483 418.391 57.1396 420.206 57.1396 422.589C57.1396 424.972 56.7483 426.794 55.9657 428.055C55.1971 429.316 54.0651 429.946 52.5698 429.946C51.0885 429.946 49.9565 429.316 49.1739 428.055C48.3913 426.794 48 424.972 48 422.589C48 420.22 48.3913 418.405 49.1739 417.144C49.9565 415.884 51.0885 415.253 52.5698 415.253ZM49.4883 422.589C49.4883 424.28 49.6421 425.603 49.9495 426.559L54.6032 417.352C54.114 416.701 53.4363 416.375 52.5698 416.375C51.6055 416.375 50.8509 416.888 50.3059 417.913C49.7608 418.925 49.4883 420.483 49.4883 422.589ZM52.5698 428.803C53.5481 428.803 54.3097 428.297 54.8547 427.286C55.3997 426.261 55.6722 424.695 55.6722 422.589C55.6722 420.802 55.4976 419.417 55.1482 418.433L50.4945 427.722C50.9976 428.443 51.6894 428.803 52.5698 428.803Z" fill="url(#paint26_linear_175_198)" fill-opacity="0.6"/>
<path d="M52.5698 439.004C54.0651 439.004 55.1971 439.635 55.9657 440.895C56.7483 442.142 57.1396 443.957 57.1396 446.34C57.1396 448.723 56.7483 450.545 55.9657 451.806C55.1971 453.067 54.0651 453.697 52.5698 453.697C51.0885 453.697 49.9565 453.067 49.1739 451.806C48.3913 450.545 48 448.723 48 446.34C48 443.971 48.3913 442.156 49.1739 440.895C49.9565 439.635 51.0885 439.004 52.5698 439.004ZM49.4883 446.34C49.4883 448.031 49.6421 449.354 49.9495 450.31L54.6032 441.103C54.114 440.452 53.4363 440.126 52.5698 440.126C51.6055 440.126 50.8509 440.639 50.3059 441.664C49.7608 442.676 49.4883 444.234 49.4883 446.34ZM52.5698 452.554C53.5481 452.554 54.3097 452.049 54.8547 451.037C55.3997 450.012 55.6722 448.446 55.6722 446.34C55.6722 444.553 55.4976 443.168 55.1482 442.184L50.4945 451.474C50.9976 452.194 51.6894 452.554 52.5698 452.554Z" fill="url(#paint27_linear_175_198)" fill-opacity="0.6"/>
<path d="M53.8276 476.139H56.909V477.24H48.9223V476.139H52.486V464.459L49.09 466.475L48.5031 465.54L52.6956 462.963H53.8276V476.139Z" fill="url(#paint28_linear_175_198)" fill-opacity="0.6"/>
<path d="M52.5698 486.506C54.0651 486.506 55.1971 487.137 55.9657 488.398C56.7483 489.644 57.1396 491.459 57.1396 493.842C57.1396 496.225 56.7483 498.047 55.9657 499.308C55.1971 500.569 54.0651 501.199 52.5698 501.199C51.0885 501.199 49.9565 500.569 49.1739 499.308C48.3913 498.047 48 496.225 48 493.842C48 491.473 48.3913 489.658 49.1739 488.398C49.9565 487.137 51.0885 486.506 52.5698 486.506ZM49.4883 493.842C49.4883 495.533 49.6421 496.856 49.9495 497.812L54.6032 488.605C54.114 487.954 53.4363 487.629 52.5698 487.629C51.6055 487.629 50.8509 488.141 50.3059 489.166C49.7608 490.178 49.4883 491.737 49.4883 493.842ZM52.5698 500.056C53.5481 500.056 54.3097 499.551 54.8547 498.539C55.3997 497.514 55.6722 495.948 55.6722 493.842C55.6722 492.055 55.4976 490.67 55.1482 489.686L50.4945 498.976C50.9976 499.696 51.6894 500.056 52.5698 500.056Z" fill="url(#paint29_linear_175_198)" fill-opacity="0.6"/>
<path d="M53.8276 523.641H56.909V524.743H48.9223V523.641H52.486V511.962L49.09 513.977L48.5031 513.042L52.6956 510.465H53.8276V523.641Z" fill="url(#paint30_linear_175_198)" fill-opacity="0.6"/>
<path d="M53.8276 547.392H56.909V548.494H48.9223V547.392H52.486V535.713L49.09 537.728L48.5031 536.793L52.6956 534.216H53.8276V547.392Z" fill="url(#paint31_linear_175_198)" fill-opacity="0.6"/>
<path d="M92.7577 381.135H95.8392V382.236H87.8525V381.135H91.4162V369.455L88.0202 371.471L87.4333 370.536L91.6258 367.959H92.7577V381.135Z" fill="url(#paint32_linear_175_198)" fill-opacity="0.6"/>
<path d="M91.5 391.502C92.9953 391.502 94.1273 392.133 94.8959 393.393C95.6785 394.64 96.0698 396.455 96.0698 398.838C96.0698 401.221 95.6785 403.043 94.8959 404.304C94.1273 405.565 92.9953 406.195 91.5 406.195C90.0187 406.195 88.8867 405.565 88.1041 404.304C87.3215 403.043 86.9302 401.221 86.9302 398.838C86.9302 396.469 87.3215 394.654 88.1041 393.393C88.8867 392.133 90.0187 391.502 91.5 391.502ZM88.4185 398.838C88.4185 400.529 88.5723 401.852 88.8797 402.808L93.5334 393.601C93.0442 392.95 92.3664 392.624 91.5 392.624C90.5357 392.624 89.7811 393.137 89.2361 394.162C88.691 395.174 88.4185 396.732 88.4185 398.838ZM91.5 405.052C92.4782 405.052 93.2399 404.546 93.7849 403.535C94.3299 402.51 94.6024 400.944 94.6024 398.838C94.6024 397.051 94.4277 395.665 94.0784 394.682L89.4247 403.971C89.9278 404.692 90.6196 405.052 91.5 405.052Z" fill="url(#paint33_linear_175_198)" fill-opacity="0.6"/>
<path d="M92.7577 428.637H95.8392V429.738H87.8525V428.637H91.4162V416.957L88.0202 418.973L87.4333 418.038L91.6258 415.461H92.7577V428.637Z" fill="url(#paint34_linear_175_198)" fill-opacity="0.6"/>
<path d="M92.7577 452.388H95.8392V453.489H87.8525V452.388H91.4162V440.708L88.0202 442.724L87.4333 441.789L91.6258 439.212H92.7577V452.388Z" fill="url(#paint35_linear_175_198)" fill-opacity="0.6"/>
<path d="M91.5 462.755C92.9953 462.755 94.1273 463.386 94.8959 464.646C95.6785 465.893 96.0698 467.708 96.0698 470.091C96.0698 472.474 95.6785 474.296 94.8959 475.557C94.1273 476.818 92.9953 477.448 91.5 477.448C90.0187 477.448 88.8867 476.818 88.1041 475.557C87.3215 474.296 86.9302 472.474 86.9302 470.091C86.9302 467.722 87.3215 465.907 88.1041 464.646C88.8867 463.386 90.0187 462.755 91.5 462.755ZM88.4185 470.091C88.4185 471.782 88.5723 473.105 88.8797 474.061L93.5334 464.854C93.0442 464.203 92.3664 463.878 91.5 463.878C90.5357 463.878 89.7811 464.39 89.2361 465.415C88.691 466.427 88.4185 467.985 88.4185 470.091ZM91.5 476.305C92.4782 476.305 93.2399 475.8 93.7849 474.788C94.3299 473.763 94.6024 472.197 94.6024 470.091C94.6024 468.304 94.4277 466.919 94.0784 465.935L89.4247 475.225C89.9278 475.945 90.6196 476.305 91.5 476.305Z" fill="url(#paint36_linear_175_198)" fill-opacity="0.6"/>
<path d="M92.7577 499.89H95.8392V500.992H87.8525V499.89H91.4162V488.21L88.0202 490.226L87.4333 489.291L91.6258 486.714H92.7577V499.89Z" fill="url(#paint37_linear_175_198)" fill-opacity="0.6"/>
<path d="M92.7577 523.641H95.8392V524.743H87.8525V523.641H91.4162V511.962L88.0202 513.977L87.4333 513.042L91.6258 510.465H92.7577V523.641Z" fill="url(#paint38_linear_175_198)" fill-opacity="0.6"/>
<path d="M91.5 534.008C92.9953 534.008 94.1273 534.639 94.8959 535.9C95.6785 537.147 96.0698 538.962 96.0698 541.345C96.0698 543.728 95.6785 545.549 94.8959 546.81C94.1273 548.071 92.9953 548.701 91.5 548.701C90.0187 548.701 88.8867 548.071 88.1041 546.81C87.3215 545.549 86.9302 543.728 86.9302 541.345C86.9302 538.975 87.3215 537.16 88.1041 535.9C88.8867 534.639 90.0187 534.008 91.5 534.008ZM88.4185 541.345C88.4185 543.035 88.5723 544.358 88.8797 545.314L93.5334 536.107C93.0442 535.456 92.3664 535.131 91.5 535.131C90.5357 535.131 89.7811 535.643 89.2361 536.669C88.691 537.68 88.4185 539.239 88.4185 541.345ZM91.5 547.558C92.4782 547.558 93.2399 547.053 93.7849 546.041C94.3299 545.016 94.6024 543.451 94.6024 541.345C94.6024 539.557 94.4277 538.172 94.0784 537.188L89.4247 546.478C89.9278 547.198 90.6196 547.558 91.5 547.558Z" fill="url(#paint39_linear_175_198)" fill-opacity="0.6"/>
<path d="M92.7577 571.143H95.8392V572.245H87.8525V571.143H91.4162V559.464L88.0202 561.48L87.4333 560.544L91.6258 557.967H92.7577V571.143Z" fill="url(#paint40_linear_175_198)" fill-opacity="0.6"/>
<path d="M91.5 581.511C92.9953 581.511 94.1273 582.141 94.8959 583.402C95.6785 584.649 96.0698 586.464 96.0698 588.847C96.0698 591.23 95.6785 593.052 94.8959 594.312C94.1273 595.573 92.9953 596.204 91.5 596.204C90.0187 596.204 88.8867 595.573 88.1041 594.312C87.3215 593.052 86.9302 591.23 86.9302 588.847C86.9302 586.478 87.3215 584.663 88.1041 583.402C88.8867 582.141 90.0187 581.511 91.5 581.511ZM88.4185 588.847C88.4185 590.537 88.5723 591.86 88.8797 592.816L93.5334 583.61C93.0442 582.958 92.3664 582.633 91.5 582.633C90.5357 582.633 89.7811 583.145 89.2361 584.171C88.691 585.182 88.4185 586.741 88.4185 588.847ZM91.5 595.061C92.4782 595.061 93.2399 594.555 93.7849 593.543C94.3299 592.518 94.6024 590.953 94.6024 588.847C94.6024 587.059 94.4277 585.674 94.0784 584.69L89.4247 593.98C89.9278 594.7 90.6196 595.061 91.5 595.061Z" fill="url(#paint41_linear_175_198)" fill-opacity="0.6"/>
<path d="M130.43 367.751C131.926 367.751 133.057 368.381 133.826 369.642C134.609 370.889 135 372.704 135 375.087C135 377.47 134.609 379.292 133.826 380.553C133.057 381.814 131.926 382.444 130.43 382.444C128.949 382.444 127.817 381.814 127.034 380.553C126.252 379.292 125.86 377.47 125.86 375.087C125.86 372.718 126.252 370.903 127.034 369.642C127.817 368.381 128.949 367.751 130.43 367.751ZM127.349 375.087C127.349 376.777 127.502 378.101 127.81 379.057L132.464 369.85C131.974 369.199 131.297 368.873 130.43 368.873C129.466 368.873 128.711 369.386 128.166 370.411C127.621 371.423 127.349 372.981 127.349 375.087ZM130.43 381.301C131.408 381.301 132.17 380.795 132.715 379.784C133.26 378.759 133.533 377.193 133.533 375.087C133.533 373.3 133.358 371.914 133.009 370.931L128.355 380.22C128.858 380.941 129.55 381.301 130.43 381.301Z" fill="url(#paint42_linear_175_198)" fill-opacity="0.6"/>
<path d="M131.688 404.886H134.769V405.987H126.783V404.886H130.346V393.206L126.95 395.222L126.363 394.287L130.556 391.71H131.688V404.886Z" fill="url(#paint43_linear_175_198)" fill-opacity="0.6"/>
<path d="M131.688 428.637H134.769V429.738H126.783V428.637H130.346V416.957L126.95 418.973L126.363 418.038L130.556 415.461H131.688V428.637Z" fill="url(#paint44_linear_175_198)" fill-opacity="0.6"/>
<path d="M130.43 439.004C131.926 439.004 133.057 439.635 133.826 440.895C134.609 442.142 135 443.957 135 446.34C135 448.723 134.609 450.545 133.826 451.806C133.057 453.067 131.926 453.697 130.43 453.697C128.949 453.697 127.817 453.067 127.034 451.806C126.252 450.545 125.86 448.723 125.86 446.34C125.86 443.971 126.252 442.156 127.034 440.895C127.817 439.635 128.949 439.004 130.43 439.004ZM127.349 446.34C127.349 448.031 127.502 449.354 127.81 450.31L132.464 441.103C131.974 440.452 131.297 440.126 130.43 440.126C129.466 440.126 128.711 440.639 128.166 441.664C127.621 442.676 127.349 444.234 127.349 446.34ZM130.43 452.554C131.408 452.554 132.17 452.049 132.715 451.037C133.26 450.012 133.533 448.446 133.533 446.34C133.533 444.553 133.358 443.168 133.009 442.184L128.355 451.474C128.858 452.194 129.55 452.554 130.43 452.554Z" fill="url(#paint45_linear_175_198)" fill-opacity="0.6"/>
<path d="M130.43 462.755C131.926 462.755 133.057 463.386 133.826 464.646C134.609 465.893 135 467.708 135 470.091C135 472.474 134.609 474.296 133.826 475.557C133.057 476.818 131.926 477.448 130.43 477.448C128.949 477.448 127.817 476.818 127.034 475.557C126.252 474.296 125.86 472.474 125.86 470.091C125.86 467.722 126.252 465.907 127.034 464.646C127.817 463.386 128.949 462.755 130.43 462.755ZM127.349 470.091C127.349 471.782 127.502 473.105 127.81 474.061L132.464 464.854C131.974 464.203 131.297 463.878 130.43 463.878C129.466 463.878 128.711 464.39 128.166 465.415C127.621 466.427 127.349 467.985 127.349 470.091ZM130.43 476.305C131.408 476.305 132.17 475.8 132.715 474.788C133.26 473.763 133.533 472.197 133.533 470.091C133.533 468.304 133.358 466.919 133.009 465.935L128.355 475.225C128.858 475.945 129.55 476.305 130.43 476.305Z" fill="url(#paint46_linear_175_198)" fill-opacity="0.6"/>
<g opacity="0.6">
<path d="M958.93 44C960.356 44 961.436 44.605 962.17 45.8149C962.916 47.0115 963.29 48.7532 963.29 51.0401C963.29 53.327 962.916 55.0754 962.17 56.2853C961.436 57.4952 960.356 58.1002 958.93 58.1002C957.517 58.1002 956.437 57.4952 955.69 56.2853C954.943 55.0754 954.57 53.327 954.57 51.0401C954.57 48.7665 954.943 47.0248 955.69 45.8149C956.437 44.605 957.517 44 958.93 44ZM955.99 51.0401C955.99 52.6622 956.137 53.932 956.43 54.8494L960.87 46.0143C960.403 45.3894 959.756 45.077 958.93 45.077C958.01 45.077 957.29 45.5689 956.77 46.5528C956.25 47.5234 955.99 49.0192 955.99 51.0401ZM958.93 57.0033C959.863 57.0033 960.59 56.518 961.11 55.5474C961.63 54.5635 961.89 53.0611 961.89 51.0401C961.89 49.325 961.723 47.9954 961.39 47.0514L956.95 55.9662C957.43 56.6576 958.09 57.0033 958.93 57.0033Z" fill="url(#paint47_linear_175_198)"/>
<path d="M960.13 79.6365H963.07V80.6936H955.45V79.6365H958.85V68.4282L955.61 70.3627L955.05 69.4653L959.05 66.9922H960.13V79.6365Z" fill="url(#paint48_linear_175_198)"/>
<path d="M958.93 89.5856C960.356 89.5856 961.436 90.1906 962.17 91.4005C962.916 92.5971 963.29 94.3389 963.29 96.6257C963.29 98.9126 962.916 100.661 962.17 101.871C961.436 103.081 960.356 103.686 958.93 103.686C957.517 103.686 956.437 103.081 955.69 101.871C954.943 100.661 954.57 98.9126 954.57 96.6257C954.57 94.3521 954.943 92.6104 955.69 91.4005C956.437 90.1906 957.517 89.5856 958.93 89.5856ZM955.99 96.6257C955.99 98.2478 956.137 99.5176 956.43 100.435L960.87 91.5999C960.403 90.975 959.756 90.6626 958.93 90.6626C958.01 90.6626 957.29 91.1545 956.77 92.1384C956.25 93.109 955.99 94.6048 955.99 96.6257ZM958.93 102.589C959.863 102.589 960.59 102.104 961.11 101.133C961.63 100.149 961.89 98.6467 961.89 96.6257C961.89 94.9106 961.723 93.581 961.39 92.637L956.95 101.552C957.43 102.243 958.09 102.589 958.93 102.589Z" fill="url(#paint49_linear_175_198)"/>
<path d="M960.13 125.222H963.07V126.279H955.45V125.222H958.85V114.014L955.61 115.948L955.05 115.051L959.05 112.578H960.13V125.222Z" fill="url(#paint50_linear_175_198)"/>
<path d="M960.13 148.015H963.07V149.072H955.45V148.015H958.85V136.807L955.61 138.741L955.05 137.844L959.05 135.371H960.13V148.015Z" fill="url(#paint51_linear_175_198)"/>
<path d="M958.93 157.964C960.356 157.964 961.436 158.569 962.17 159.779C962.916 160.976 963.29 162.717 963.29 165.004C963.29 167.291 962.916 169.039 962.17 170.249C961.436 171.459 960.356 172.064 958.93 172.064C957.517 172.064 956.437 171.459 955.69 170.249C954.943 169.039 954.57 167.291 954.57 165.004C954.57 162.731 954.943 160.989 955.69 159.779C956.437 158.569 957.517 157.964 958.93 157.964ZM955.99 165.004C955.99 166.626 956.137 167.896 956.43 168.813L960.87 159.978C960.403 159.353 959.756 159.041 958.93 159.041C958.01 159.041 957.29 159.533 956.77 160.517C956.25 161.487 955.99 162.983 955.99 165.004ZM958.93 170.967C959.863 170.967 960.59 170.482 961.11 169.511C961.63 168.528 961.89 167.025 961.89 165.004C961.89 163.289 961.723 161.959 961.39 161.015L956.95 169.93C957.43 170.622 958.09 170.967 958.93 170.967Z" fill="url(#paint52_linear_175_198)"/>
<path d="M960.13 193.601H963.07V194.658H955.45V193.601H958.85V182.392L955.61 184.327L955.05 183.429L959.05 180.956H960.13V193.601Z" fill="url(#paint53_linear_175_198)"/>
<path d="M958.93 203.55C960.356 203.55 961.436 204.155 962.17 205.365C962.916 206.561 963.29 208.303 963.29 210.59C963.29 212.877 962.916 214.625 962.17 215.835C961.436 217.045 960.356 217.65 958.93 217.65C957.517 217.65 956.437 217.045 955.69 215.835C954.943 214.625 954.57 212.877 954.57 210.59C954.57 208.316 954.943 206.574 955.69 205.365C956.437 204.155 957.517 203.55 958.93 203.55ZM955.99 210.59C955.99 212.212 956.137 213.482 956.43 214.399L960.87 205.564C960.403 204.939 959.756 204.627 958.93 204.627C958.01 204.627 957.29 205.119 956.77 206.102C956.25 207.073 955.99 208.569 955.99 210.59ZM958.93 216.553C959.863 216.553 960.59 216.068 961.11 215.097C961.63 214.113 961.89 212.611 961.89 210.59C961.89 208.875 961.723 207.545 961.39 206.601L956.95 215.516C957.43 216.207 958.09 216.553 958.93 216.553Z" fill="url(#paint54_linear_175_198)"/>
<path d="M958.93 226.342C960.356 226.342 961.436 226.947 962.17 228.157C962.916 229.354 963.29 231.096 963.29 233.383C963.29 235.669 962.916 237.418 962.17 238.628C961.436 239.838 960.356 240.443 958.93 240.443C957.517 240.443 956.437 239.838 955.69 238.628C954.943 237.418 954.57 235.669 954.57 233.383C954.57 231.109 954.943 229.367 955.69 228.157C956.437 226.947 957.517 226.342 958.93 226.342ZM955.99 233.383C955.99 235.005 956.137 236.274 956.43 237.192L960.87 228.357C960.403 227.732 959.756 227.419 958.93 227.419C958.01 227.419 957.29 227.911 956.77 228.895C956.25 229.866 955.99 231.362 955.99 233.383ZM958.93 239.346C959.863 239.346 960.59 238.86 961.11 237.89C961.63 236.906 961.89 235.404 961.89 233.383C961.89 231.667 961.723 230.338 961.39 229.394L956.95 238.309C957.43 239 958.09 239.346 958.93 239.346Z" fill="url(#paint55_linear_175_198)"/>
<path d="M960.13 261.979H963.07V263.036H955.45V261.979H958.85V250.771L955.61 252.705L955.05 251.808L959.05 249.335H960.13V261.979Z" fill="url(#paint56_linear_175_198)"/>
<path d="M958.93 271.928C960.356 271.928 961.436 272.533 962.17 273.743C962.916 274.94 963.29 276.681 963.29 278.968C963.29 281.255 962.916 283.003 962.17 284.213C961.436 285.423 960.356 286.028 958.93 286.028C957.517 286.028 956.437 285.423 955.69 284.213C954.943 283.003 954.57 281.255 954.57 278.968C954.57 276.695 954.943 274.953 955.69 273.743C956.437 272.533 957.517 271.928 958.93 271.928ZM955.99 278.968C955.99 280.59 956.137 281.86 956.43 282.777L960.87 273.942C960.403 273.317 959.756 273.005 958.93 273.005C958.01 273.005 957.29 273.497 956.77 274.481C956.25 275.451 955.99 276.947 955.99 278.968ZM958.93 284.931C959.863 284.931 960.59 284.446 961.11 283.475C961.63 282.492 961.89 280.989 961.89 278.968C961.89 277.253 961.723 275.923 961.39 274.979L956.95 283.894C957.43 284.586 958.09 284.931 958.93 284.931Z" fill="url(#paint57_linear_175_198)"/>
<path d="M960.13 307.565H963.07V308.622H955.45V307.565H958.85V296.356L955.61 298.291L955.05 297.393L959.05 294.92H960.13V307.565Z" fill="url(#paint58_linear_175_198)"/>
<path d="M960.13 330.357H963.07V331.414H955.45V330.357H958.85V319.149L955.61 321.084L955.05 320.186L959.05 317.713H960.13V330.357Z" fill="url(#paint59_linear_175_198)"/>
<path d="M996.07 89.5856C997.497 89.5856 998.577 90.1906 999.31 91.4005C1000.06 92.5971 1000.43 94.3389 1000.43 96.6257C1000.43 98.9126 1000.06 100.661 999.31 101.871C998.577 103.081 997.497 103.686 996.07 103.686C994.657 103.686 993.577 103.081 992.83 101.871C992.084 100.661 991.71 98.9126 991.71 96.6257C991.71 94.3521 992.084 92.6104 992.83 91.4005C993.577 90.1906 994.657 89.5856 996.07 89.5856ZM993.13 96.6257C993.13 98.2478 993.277 99.5176 993.57 100.435L998.01 91.5999C997.543 90.975 996.897 90.6626 996.07 90.6626C995.15 90.6626 994.43 91.1545 993.91 92.1384C993.39 93.109 993.13 94.6048 993.13 96.6257ZM996.07 102.589C997.003 102.589 997.73 102.104 998.25 101.133C998.77 100.149 999.03 98.6467 999.03 96.6257C999.03 94.9106 998.863 93.581 998.53 92.637L994.09 101.552C994.57 102.243 995.23 102.589 996.07 102.589Z" fill="url(#paint60_linear_175_198)"/>
<path d="M997.27 125.222H1000.21V126.279H992.59V125.222H995.99V114.014L992.75 115.948L992.19 115.051L996.19 112.578H997.27V125.222Z" fill="url(#paint61_linear_175_198)"/>
<path d="M996.07 135.171C997.497 135.171 998.577 135.776 999.31 136.986C1000.06 138.183 1000.43 139.924 1000.43 142.211C1000.43 144.498 1000.06 146.247 999.31 147.457C998.577 148.666 997.497 149.271 996.07 149.271C994.657 149.271 993.577 148.666 992.83 147.457C992.084 146.247 991.71 144.498 991.71 142.211C991.71 139.938 992.084 138.196 992.83 136.986C993.577 135.776 994.657 135.171 996.07 135.171ZM993.13 142.211C993.13 143.833 993.277 145.103 993.57 146.021L998.01 137.186C997.543 136.561 996.897 136.248 996.07 136.248C995.15 136.248 994.43 136.74 993.91 137.724C993.39 138.695 993.13 140.19 993.13 142.211ZM996.07 148.174C997.003 148.174 997.73 147.689 998.25 146.719C998.77 145.735 999.03 144.232 999.03 142.211C999.03 140.496 998.863 139.167 998.53 138.223L994.09 147.137C994.57 147.829 995.23 148.174 996.07 148.174Z" fill="url(#paint62_linear_175_198)"/>
<path d="M996.07 157.964C997.497 157.964 998.577 158.569 999.31 159.779C1000.06 160.976 1000.43 162.717 1000.43 165.004C1000.43 167.291 1000.06 169.039 999.31 170.249C998.577 171.459 997.497 172.064 996.07 172.064C994.657 172.064 993.577 171.459 992.83 170.249C992.084 169.039 991.71 167.291 991.71 165.004C991.71 162.731 992.084 160.989 992.83 159.779C993.577 158.569 994.657 157.964 996.07 157.964ZM993.13 165.004C993.13 166.626 993.277 167.896 993.57 168.813L998.01 159.978C997.543 159.353 996.897 159.041 996.07 159.041C995.15 159.041 994.43 159.533 993.91 160.517C993.39 161.487 993.13 162.983 993.13 165.004ZM996.07 170.967C997.003 170.967 997.73 170.482 998.25 169.511C998.77 168.528 999.03 167.025 999.03 165.004C999.03 163.289 998.863 161.959 998.53 161.015L994.09 169.93C994.57 170.622 995.23 170.967 996.07 170.967Z" fill="url(#paint63_linear_175_198)"/>
<path d="M997.27 193.601H1000.21V194.658H992.59V193.601H995.99V182.392L992.75 184.327L992.19 183.429L996.19 180.956H997.27V193.601Z" fill="url(#paint64_linear_175_198)"/>
<path d="M996.07 203.55C997.497 203.55 998.577 204.155 999.31 205.365C1000.06 206.561 1000.43 208.303 1000.43 210.59C1000.43 212.877 1000.06 214.625 999.31 215.835C998.577 217.045 997.497 217.65 996.07 217.65C994.657 217.65 993.577 217.045 992.83 215.835C992.084 214.625 991.71 212.877 991.71 210.59C991.71 208.316 992.084 206.574 992.83 205.365C993.577 204.155 994.657 203.55 996.07 203.55ZM993.13 210.59C993.13 212.212 993.277 213.482 993.57 214.399L998.01 205.564C997.543 204.939 996.897 204.627 996.07 204.627C995.15 204.627 994.43 205.119 993.91 206.102C993.39 207.073 993.13 208.569 993.13 210.59ZM996.07 216.553C997.003 216.553 997.73 216.068 998.25 215.097C998.77 214.113 999.03 212.611 999.03 210.59C999.03 208.875 998.863 207.545 998.53 206.601L994.09 215.516C994.57 216.207 995.23 216.553 996.07 216.553Z" fill="url(#paint65_linear_175_198)"/>
<path d="M997.27 239.186H1000.21V240.243H992.59V239.186H995.99V227.978L992.75 229.912L992.19 229.015L996.19 226.542H997.27V239.186Z" fill="url(#paint66_linear_175_198)"/>
<path d="M996.07 249.135C997.497 249.135 998.577 249.74 999.31 250.95C1000.06 252.147 1000.43 253.888 1000.43 256.175C1000.43 258.462 1000.06 260.211 999.31 261.421C998.577 262.63 997.497 263.235 996.07 263.235C994.657 263.235 993.577 262.63 992.83 261.421C992.084 260.211 991.71 258.462 991.71 256.175C991.71 253.902 992.084 252.16 992.83 250.95C993.577 249.74 994.657 249.135 996.07 249.135ZM993.13 256.175C993.13 257.797 993.277 259.067 993.57 259.985L998.01 251.15C997.543 250.525 996.897 250.212 996.07 250.212C995.15 250.212 994.43 250.704 993.91 251.688C993.39 252.659 993.13 254.154 993.13 256.175ZM996.07 262.139C997.003 262.139 997.73 261.653 998.25 260.683C998.77 259.699 999.03 258.196 999.03 256.175C999.03 254.46 998.863 253.131 998.53 252.187L994.09 261.101C994.57 261.793 995.23 262.139 996.07 262.139Z" fill="url(#paint67_linear_175_198)"/>
<path d="M996.07 271.928C997.497 271.928 998.577 272.533 999.31 273.743C1000.06 274.94 1000.43 276.681 1000.43 278.968C1000.43 281.255 1000.06 283.003 999.31 284.213C998.577 285.423 997.497 286.028 996.07 286.028C994.657 286.028 993.577 285.423 992.83 284.213C992.084 283.003 991.71 281.255 991.71 278.968C991.71 276.695 992.084 274.953 992.83 273.743C993.577 272.533 994.657 271.928 996.07 271.928ZM993.13 278.968C993.13 280.59 993.277 281.86 993.57 282.777L998.01 273.942C997.543 273.317 996.897 273.005 996.07 273.005C995.15 273.005 994.43 273.497 993.91 274.481C993.39 275.451 993.13 276.947 993.13 278.968ZM996.07 284.931C997.003 284.931 997.73 284.446 998.25 283.475C998.77 282.492 999.03 280.989 999.03 278.968C999.03 277.253 998.863 275.923 998.53 274.979L994.09 283.894C994.57 284.586 995.23 284.931 996.07 284.931Z" fill="url(#paint68_linear_175_198)"/>
<path d="M997.27 307.565H1000.21V308.622H992.59V307.565H995.99V296.356L992.75 298.291L992.19 297.393L996.19 294.92H997.27V307.565Z" fill="url(#paint69_linear_175_198)"/>
<path d="M996.07 317.514C997.497 317.514 998.577 318.119 999.31 319.329C1000.06 320.525 1000.43 322.267 1000.43 324.554C1000.43 326.841 1000.06 328.589 999.31 329.799C998.577 331.009 997.497 331.614 996.07 331.614C994.657 331.614 993.577 331.009 992.83 329.799C992.084 328.589 991.71 326.841 991.71 324.554C991.71 322.28 992.084 320.538 992.83 319.329C993.577 318.119 994.657 317.514 996.07 317.514ZM993.13 324.554C993.13 326.176 993.277 327.446 993.57 328.363L998.01 319.528C997.543 318.903 996.897 318.591 996.07 318.591C995.15 318.591 994.43 319.083 993.91 320.066C993.39 321.037 993.13 322.533 993.13 324.554ZM996.07 330.517C997.003 330.517 997.73 330.032 998.25 329.061C998.77 328.077 999.03 326.575 999.03 324.554C999.03 322.839 998.863 321.509 998.53 320.565L994.09 329.48C994.57 330.171 995.23 330.517 996.07 330.517Z" fill="url(#paint70_linear_175_198)"/>
<path d="M997.27 353.15H1000.21V354.207H992.59V353.15H995.99V341.942L992.75 343.876L992.19 342.979L996.19 340.506H997.27V353.15Z" fill="url(#paint71_linear_175_198)"/>
<path d="M997.27 375.943H1000.21V377H992.59V375.943H995.99V364.735L992.75 366.669L992.19 365.772L996.19 363.299H997.27V375.943Z" fill="url(#paint72_linear_175_198)"/>
<path d="M940.36 112.378C941.786 112.378 942.866 112.983 943.599 114.193C944.346 115.39 944.719 117.132 944.719 119.419C944.719 121.705 944.346 123.454 943.599 124.664C942.866 125.874 941.786 126.479 940.36 126.479C938.946 126.479 937.867 125.874 937.12 124.664C936.373 123.454 936 121.705 936 119.419C936 117.145 936.373 115.403 937.12 114.193C937.867 112.983 938.946 112.378 940.36 112.378ZM937.42 119.419C937.42 121.041 937.567 122.31 937.86 123.228L942.3 114.393C941.833 113.768 941.186 113.455 940.36 113.455C939.44 113.455 938.72 113.947 938.2 114.931C937.68 115.902 937.42 117.398 937.42 119.419ZM940.36 125.382C941.293 125.382 942.02 124.896 942.54 123.926C943.06 122.942 943.319 121.439 943.319 119.419C943.319 117.703 943.153 116.374 942.82 115.43L938.38 124.345C938.86 125.036 939.52 125.382 940.36 125.382Z" fill="url(#paint73_linear_175_198)"/>
<path d="M940.36 135.171C941.786 135.171 942.866 135.776 943.599 136.986C944.346 138.183 944.719 139.924 944.719 142.211C944.719 144.498 944.346 146.247 943.599 147.457C942.866 148.666 941.786 149.271 940.36 149.271C938.946 149.271 937.867 148.666 937.12 147.457C936.373 146.247 936 144.498 936 142.211C936 139.938 936.373 138.196 937.12 136.986C937.867 135.776 938.946 135.171 940.36 135.171ZM937.42 142.211C937.42 143.833 937.567 145.103 937.86 146.021L942.3 137.186C941.833 136.561 941.186 136.248 940.36 136.248C939.44 136.248 938.72 136.74 938.2 137.724C937.68 138.695 937.42 140.19 937.42 142.211ZM940.36 148.174C941.293 148.174 942.02 147.689 942.54 146.719C943.06 145.735 943.319 144.232 943.319 142.211C943.319 140.496 943.153 139.167 942.82 138.223L938.38 147.137C938.86 147.829 939.52 148.174 940.36 148.174Z" fill="url(#paint74_linear_175_198)"/>
<path d="M941.56 170.808H944.499V171.865H936.88V170.808H940.28V159.599L937.04 161.534L936.48 160.636L940.48 158.163H941.56V170.808Z" fill="url(#paint75_linear_175_198)"/>
<path d="M940.36 180.757C941.786 180.757 942.866 181.362 943.599 182.572C944.346 183.768 944.719 185.51 944.719 187.797C944.719 190.084 944.346 191.832 943.599 193.042C942.866 194.252 941.786 194.857 940.36 194.857C938.946 194.857 937.867 194.252 937.12 193.042C936.373 191.832 936 190.084 936 187.797C936 185.523 936.373 183.782 937.12 182.572C937.867 181.362 938.946 180.757 940.36 180.757ZM937.42 187.797C937.42 189.419 937.567 190.689 937.86 191.606L942.3 182.771C941.833 182.146 941.186 181.834 940.36 181.834C939.44 181.834 938.72 182.326 938.2 183.31C937.68 184.28 937.42 185.776 937.42 187.797ZM940.36 193.76C941.293 193.76 942.02 193.275 942.54 192.304C943.06 191.32 943.319 189.818 943.319 187.797C943.319 186.082 943.153 184.752 942.82 183.808L938.38 192.723C938.86 193.414 939.52 193.76 940.36 193.76Z" fill="url(#paint76_linear_175_198)"/>
<path d="M941.56 216.393H944.499V217.45H936.88V216.393H940.28V205.185L937.04 207.12L936.48 206.222L940.48 203.749H941.56V216.393Z" fill="url(#paint77_linear_175_198)"/>
<path d="M941.56 239.186H944.499V240.243H936.88V239.186H940.28V227.978L937.04 229.912L936.48 229.015L940.48 226.542H941.56V239.186Z" fill="url(#paint78_linear_175_198)"/>
<path d="M978.7 79.6365H981.64V80.6936H974.02V79.6365H977.42V68.4282L974.18 70.3627L973.62 69.4653L977.62 66.9922H978.7V79.6365Z" fill="url(#paint79_linear_175_198)"/>
<path d="M977.5 89.5856C978.927 89.5856 980.006 90.1906 980.74 91.4005C981.486 92.5971 981.86 94.3389 981.86 96.6257C981.86 98.9126 981.486 100.661 980.74 101.871C980.006 103.081 978.927 103.686 977.5 103.686C976.087 103.686 975.007 103.081 974.26 101.871C973.514 100.661 973.14 98.9126 973.14 96.6257C973.14 94.3521 973.514 92.6104 974.26 91.4005C975.007 90.1906 976.087 89.5856 977.5 89.5856ZM974.56 96.6257C974.56 98.2478 974.707 99.5176 975 100.435L979.44 91.5999C978.973 90.975 978.327 90.6626 977.5 90.6626C976.58 90.6626 975.86 91.1545 975.34 92.1384C974.82 93.109 974.56 94.6048 974.56 96.6257ZM977.5 102.589C978.433 102.589 979.16 102.104 979.68 101.133C980.2 100.149 980.46 98.6467 980.46 96.6257C980.46 94.9106 980.293 93.581 979.96 92.637L975.52 101.552C976 102.243 976.66 102.589 977.5 102.589Z" fill="url(#paint80_linear_175_198)"/>
<path d="M978.7 125.222H981.64V126.279H974.02V125.222H977.42V114.014L974.18 115.948L973.62 115.051L977.62 112.578H978.7V125.222Z" fill="url(#paint81_linear_175_198)"/>
<path d="M978.7 148.015H981.64V149.072H974.02V148.015H977.42V136.807L974.18 138.741L973.62 137.844L977.62 135.371H978.7V148.015Z" fill="url(#paint82_linear_175_198)"/>
<path d="M977.5 157.964C978.927 157.964 980.006 158.569 980.74 159.779C981.486 160.976 981.86 162.717 981.86 165.004C981.86 167.291 981.486 169.039 980.74 170.249C980.006 171.459 978.927 172.064 977.5 172.064C976.087 172.064 975.007 171.459 974.26 170.249C973.514 169.039 973.14 167.291 973.14 165.004C973.14 162.731 973.514 160.989 974.26 159.779C975.007 158.569 976.087 157.964 977.5 157.964ZM974.56 165.004C974.56 166.626 974.707 167.896 975 168.813L979.44 159.978C978.973 159.353 978.327 159.041 977.5 159.041C976.58 159.041 975.86 159.533 975.34 160.517C974.82 161.487 974.56 162.983 974.56 165.004ZM977.5 170.967C978.433 170.967 979.16 170.482 979.68 169.511C980.2 168.528 980.46 167.025 980.46 165.004C980.46 163.289 980.293 161.959 979.96 161.015L975.52 169.93C976 170.622 976.66 170.967 977.5 170.967Z" fill="url(#paint83_linear_175_198)"/>
<path d="M978.7 193.601H981.64V194.658H974.02V193.601H977.42V182.392L974.18 184.327L973.62 183.429L977.62 180.956H978.7V193.601Z" fill="url(#paint84_linear_175_198)"/>
<path d="M978.7 216.393H981.64V217.45H974.02V216.393H977.42V205.185L974.18 207.12L973.62 206.222L977.62 203.749H978.7V216.393Z" fill="url(#paint85_linear_175_198)"/>
<path d="M977.5 226.342C978.927 226.342 980.006 226.947 980.74 228.157C981.486 229.354 981.86 231.096 981.86 233.383C981.86 235.669 981.486 237.418 980.74 238.628C980.006 239.838 978.927 240.443 977.5 240.443C976.087 240.443 975.007 239.838 974.26 238.628C973.514 237.418 973.14 235.669 973.14 233.383C973.14 231.109 973.514 229.367 974.26 228.157C975.007 226.947 976.087 226.342 977.5 226.342ZM974.56 233.383C974.56 235.005 974.707 236.274 975 237.192L979.44 228.357C978.973 227.732 978.327 227.419 977.5 227.419C976.58 227.419 975.86 227.911 975.34 228.895C974.82 229.866 974.56 231.362 974.56 233.383ZM977.5 239.346C978.433 239.346 979.16 238.86 979.68 237.89C980.2 236.906 980.46 235.404 980.46 233.383C980.46 231.667 980.293 230.338 979.96 229.394L975.52 238.309C976 239 976.66 239.346 977.5 239.346Z" fill="url(#paint86_linear_175_198)"/>
<path d="M978.7 261.979H981.64V263.036H974.02V261.979H977.42V250.771L974.18 252.705L973.62 251.808L977.62 249.335H978.7V261.979Z" fill="url(#paint87_linear_175_198)"/>
<path d="M977.5 271.928C978.927 271.928 980.006 272.533 980.74 273.743C981.486 274.94 981.86 276.681 981.86 278.968C981.86 281.255 981.486 283.003 980.74 284.213C980.006 285.423 978.927 286.028 977.5 286.028C976.087 286.028 975.007 285.423 974.26 284.213C973.514 283.003 973.14 281.255 973.14 278.968C973.14 276.695 973.514 274.953 974.26 273.743C975.007 272.533 976.087 271.928 977.5 271.928ZM974.56 278.968C974.56 280.59 974.707 281.86 975 282.777L979.44 273.942C978.973 273.317 978.327 273.005 977.5 273.005C976.58 273.005 975.86 273.497 975.34 274.481C974.82 275.451 974.56 276.947 974.56 278.968ZM977.5 284.931C978.433 284.931 979.16 284.446 979.68 283.475C980.2 282.492 980.46 280.989 980.46 278.968C980.46 277.253 980.293 275.923 979.96 274.979L975.52 283.894C976 284.586 976.66 284.931 977.5 284.931Z" fill="url(#paint88_linear_175_198)"/>
<path d="M1014.64 66.7928C1016.07 66.7928 1017.15 67.3978 1017.88 68.6077C1018.63 69.8043 1019 71.546 1019 73.8329C1019 76.1198 1018.63 77.8682 1017.88 79.0781C1017.15 80.288 1016.07 80.893 1014.64 80.893C1013.23 80.893 1012.15 80.288 1011.4 79.0781C1010.65 77.8682 1010.28 76.1198 1010.28 73.8329C1010.28 71.5593 1010.65 69.8176 1011.4 68.6077C1012.15 67.3978 1013.23 66.7928 1014.64 66.7928ZM1011.7 73.8329C1011.7 75.455 1011.85 76.7248 1012.14 77.6422L1016.58 68.8071C1016.11 68.1822 1015.47 67.8698 1014.64 67.8698C1013.72 67.8698 1013 68.3617 1012.48 69.3456C1011.96 70.3162 1011.7 71.812 1011.7 73.8329ZM1014.64 79.7961C1015.57 79.7961 1016.3 79.3108 1016.82 78.3402C1017.34 77.3563 1017.6 75.8539 1017.6 73.8329C1017.6 72.1178 1017.43 70.7882 1017.1 69.8442L1012.66 78.759C1013.14 79.4504 1013.8 79.7961 1014.64 79.7961Z" fill="url(#paint89_linear_175_198)"/>
<path d="M1015.84 102.429H1018.78V103.486H1011.16V102.429H1014.56V91.221L1011.32 93.1555L1010.76 92.2581L1014.76 89.785H1015.84V102.429Z" fill="url(#paint90_linear_175_198)"/>
<path d="M1015.84 125.222H1018.78V126.279H1011.16V125.222H1014.56V114.014L1011.32 115.948L1010.76 115.051L1014.76 112.578H1015.84V125.222Z" fill="url(#paint91_linear_175_198)"/>
<path d="M1014.64 135.171C1016.07 135.171 1017.15 135.776 1017.88 136.986C1018.63 138.183 1019 139.924 1019 142.211C1019 144.498 1018.63 146.247 1017.88 147.457C1017.15 148.666 1016.07 149.271 1014.64 149.271C1013.23 149.271 1012.15 148.666 1011.4 147.457C1010.65 146.247 1010.28 144.498 1010.28 142.211C1010.28 139.938 1010.65 138.196 1011.4 136.986C1012.15 135.776 1013.23 135.171 1014.64 135.171ZM1011.7 142.211C1011.7 143.833 1011.85 145.103 1012.14 146.021L1016.58 137.186C1016.11 136.561 1015.47 136.248 1014.64 136.248C1013.72 136.248 1013 136.74 1012.48 137.724C1011.96 138.695 1011.7 140.19 1011.7 142.211ZM1014.64 148.174C1015.57 148.174 1016.3 147.689 1016.82 146.719C1017.34 145.735 1017.6 144.232 1017.6 142.211C1017.6 140.496 1017.43 139.167 1017.1 138.223L1012.66 147.137C1013.14 147.829 1013.8 148.174 1014.64 148.174Z" fill="url(#paint92_linear_175_198)"/>
<path d="M1014.64 157.964C1016.07 157.964 1017.15 158.569 1017.88 159.779C1018.63 160.976 1019 162.717 1019 165.004C1019 167.291 1018.63 169.039 1017.88 170.249C1017.15 171.459 1016.07 172.064 1014.64 172.064C1013.23 172.064 1012.15 171.459 1011.4 170.249C1010.65 169.039 1010.28 167.291 1010.28 165.004C1010.28 162.731 1010.65 160.989 1011.4 159.779C1012.15 158.569 1013.23 157.964 1014.64 157.964ZM1011.7 165.004C1011.7 166.626 1011.85 167.896 1012.14 168.813L1016.58 159.978C1016.11 159.353 1015.47 159.041 1014.64 159.041C1013.72 159.041 1013 159.533 1012.48 160.517C1011.96 161.487 1011.7 162.983 1011.7 165.004ZM1014.64 170.967C1015.57 170.967 1016.3 170.482 1016.82 169.511C1017.34 168.528 1017.6 167.025 1017.6 165.004C1017.6 163.289 1017.43 161.959 1017.1 161.015L1012.66 169.93C1013.14 170.622 1013.8 170.967 1014.64 170.967Z" fill="url(#paint93_linear_175_198)"/>
</g>
<defs>
<filter id="filter0_f_175_198" x="-519.19" y="-642.19" width="2141.38" height="1500.38" filterUnits="userSpaceOnUse" color-interpolation-filters="sRGB">
<feFlood flood-opacity="0" result="BackgroundImageFix"/>
<feBlend mode="normal" in="SourceGraphic" in2="BackgroundImageFix" result="shape"/>
<feGaussianBlur stdDeviation="200.095" result="effect1_foregroundBlur_175_198"/>
</filter>
<linearGradient id="paint0_linear_175_198" x1="91.5" y1="344" x2="91.5" y2="655.381" gradientUnits="userSpaceOnUse">
<stop stop-color="#F7DD43"/>
<stop offset="1" stop-color="#F7DD43" stop-opacity="0"/>
</linearGradient>
<linearGradient id="paint1_linear_175_198" x1="91.5" y1="344" x2="91.5" y2="655.381" gradientUnits="userSpaceOnUse">
<stop stop-color="#F7DD43"/>
<stop offset="1" stop-color="#F7DD43" stop-opacity="0"/>
</linearGradient>
<linearGradient id="paint2_linear_175_198" x1="91.5" y1="344" x2="91.5" y2="655.381" gradientUnits="userSpaceOnUse">
<stop stop-color="#F7DD43"/>
<stop offset="1" stop-color="#F7DD43" stop-opacity="0"/>
</linearGradient>
<linearGradient id="paint3_linear_175_198" x1="91.5" y1="344" x2="91.5" y2="655.381" gradientUnits="userSpaceOnUse">
<stop stop-color="#F7DD43"/>
<stop offset="1" stop-color="#F7DD43" stop-opacity="0"/>
</linearGradient>
<linearGradient id="paint4_linear_175_198" x1="91.5" y1="344" x2="91.5" y2="655.381" gradientUnits="userSpaceOnUse">
<stop stop-color="#F7DD43"/>
<stop offset="1" stop-color="#F7DD43" stop-opacity="0"/>
</linearGradient>
<linearGradient id="paint5_linear_175_198" x1="91.5" y1="344" x2="91.5" y2="655.381" gradientUnits="userSpaceOnUse">
<stop stop-color="#F7DD43"/>
<stop offset="1" stop-color="#F7DD43" stop-opacity="0"/>
</linearGradient>
<linearGradient id="paint6_linear_175_198" x1="91.5" y1="344" x2="91.5" y2="655.381" gradientUnits="userSpaceOnUse">
<stop stop-color="#F7DD43"/>
<stop offset="1" stop-color="#F7DD43" stop-opacity="0"/>
</linearGradient>
<linearGradient id="paint7_linear_175_198" x1="91.5" y1="344" x2="91.5" y2="655.381" gradientUnits="userSpaceOnUse">
<stop stop-color="#F7DD43"/>
<stop offset="1" stop-color="#F7DD43" stop-opacity="0"/>
</linearGradient>
<linearGradient id="paint8_linear_175_198" x1="91.5" y1="344" x2="91.5" y2="655.381" gradientUnits="userSpaceOnUse">
<stop stop-color="#F7DD43"/>
<stop offset="1" stop-color="#F7DD43" stop-opacity="0"/>
</linearGradient>
<linearGradient id="paint9_linear_175_198" x1="91.5" y1="344" x2="91.5" y2="655.381" gradientUnits="userSpaceOnUse">
<stop stop-color="#F7DD43"/>
<stop offset="1" stop-color="#F7DD43" stop-opacity="0"/>
</linearGradient>
<linearGradient id="paint10_linear_175_198" x1="91.5" y1="344" x2="91.5" y2="655.381" gradientUnits="userSpaceOnUse">
<stop stop-color="#F7DD43"/>
<stop offset="1" stop-color="#F7DD43" stop-opacity="0"/>
</linearGradient>
<linearGradient id="paint11_linear_175_198" x1="91.5" y1="344" x2="91.5" y2="655.381" gradientUnits="userSpaceOnUse">
<stop stop-color="#F7DD43"/>
<stop offset="1" stop-color="#F7DD43" stop-opacity="0"/>
</linearGradient>
<linearGradient id="paint12_linear_175_198" x1="91.5" y1="344" x2="91.5" y2="655.381" gradientUnits="userSpaceOnUse">
<stop stop-color="#F7DD43"/>
<stop offset="1" stop-color="#F7DD43" stop-opacity="0"/>
</linearGradient>
<linearGradient id="paint13_linear_175_198" x1="91.5" y1="344" x2="91.5" y2="655.381" gradientUnits="userSpaceOnUse">
<stop stop-color="#F7DD43"/>
<stop offset="1" stop-color="#F7DD43" stop-opacity="0"/>
</linearGradient>
<linearGradient id="paint14_linear_175_198" x1="91.5" y1="344" x2="91.5" y2="655.381" gradientUnits="userSpaceOnUse">
<stop stop-color="#F7DD43"/>
<stop offset="1" stop-color="#F7DD43" stop-opacity="0"/>
</linearGradient>
<linearGradient id="paint15_linear_175_198" x1="91.5" y1="344" x2="91.5" y2="655.381" gradientUnits="userSpaceOnUse">
<stop stop-color="#F7DD43"/>
<stop offset="1" stop-color="#F7DD43" stop-opacity="0"/>
</linearGradient>
<linearGradient id="paint16_linear_175_198" x1="91.5" y1="344" x2="91.5" y2="655.381" gradientUnits="userSpaceOnUse">
<stop stop-color="#F7DD43"/>
<stop offset="1" stop-color="#F7DD43" stop-opacity="0"/>
</linearGradient>
<linearGradient id="paint17_linear_175_198" x1="91.5" y1="344" x2="91.5" y2="655.381" gradientUnits="userSpaceOnUse">
<stop stop-color="#F7DD43"/>
<stop offset="1" stop-color="#F7DD43" stop-opacity="0"/>
</linearGradient>
<linearGradient id="paint18_linear_175_198" x1="91.5" y1="344" x2="91.5" y2="655.381" gradientUnits="userSpaceOnUse">
<stop stop-color="#F7DD43"/>
<stop offset="1" stop-color="#F7DD43" stop-opacity="0"/>
</linearGradient>
<linearGradient id="paint19_linear_175_198" x1="91.5" y1="344" x2="91.5" y2="655.381" gradientUnits="userSpaceOnUse">
<stop stop-color="#F7DD43"/>
<stop offset="1" stop-color="#F7DD43" stop-opacity="0"/>
</linearGradient>
<linearGradient id="paint20_linear_175_198" x1="91.5" y1="344" x2="91.5" y2="655.381" gradientUnits="userSpaceOnUse">
<stop stop-color="#F7DD43"/>
<stop offset="1" stop-color="#F7DD43" stop-opacity="0"/>
</linearGradient>
<linearGradient id="paint21_linear_175_198" x1="91.5" y1="344" x2="91.5" y2="655.381" gradientUnits="userSpaceOnUse">
<stop stop-color="#F7DD43"/>
<stop offset="1" stop-color="#F7DD43" stop-opacity="0"/>
</linearGradient>
<linearGradient id="paint22_linear_175_198" x1="91.5" y1="344" x2="91.5" y2="655.381" gradientUnits="userSpaceOnUse">
<stop stop-color="#F7DD43"/>
<stop offset="1" stop-color="#F7DD43" stop-opacity="0"/>
</linearGradient>
<linearGradient id="paint23_linear_175_198" x1="91.5" y1="344" x2="91.5" y2="655.381" gradientUnits="userSpaceOnUse">
<stop stop-color="#F7DD43"/>
<stop offset="1" stop-color="#F7DD43" stop-opacity="0"/>
</linearGradient>
<linearGradient id="paint24_linear_175_198" x1="91.5" y1="344" x2="91.5" y2="655.381" gradientUnits="userSpaceOnUse">
<stop stop-color="#F7DD43"/>
<stop offset="1" stop-color="#F7DD43" stop-opacity="0"/>
</linearGradient>
<linearGradient id="paint25_linear_175_198" x1="91.5" y1="344" x2="91.5" y2="655.381" gradientUnits="userSpaceOnUse">
<stop stop-color="#F7DD43"/>
<stop offset="1" stop-color="#F7DD43" stop-opacity="0"/>
</linearGradient>
<linearGradient id="paint26_linear_175_198" x1="91.5" y1="344" x2="91.5" y2="655.381" gradientUnits="userSpaceOnUse">
<stop stop-color="#F7DD43"/>
<stop offset="1" stop-color="#F7DD43" stop-opacity="0"/>
</linearGradient>
<linearGradient id="paint27_linear_175_198" x1="91.5" y1="344" x2="91.5" y2="655.381" gradientUnits="userSpaceOnUse">
<stop stop-color="#F7DD43"/>
<stop offset="1" stop-color="#F7DD43" stop-opacity="0"/>
</linearGradient>
<linearGradient id="paint28_linear_175_198" x1="91.5" y1="344" x2="91.5" y2="655.381" gradientUnits="userSpaceOnUse">
<stop stop-color="#F7DD43"/>
<stop offset="1" stop-color="#F7DD43" stop-opacity="0"/>
</linearGradient>
<linearGradient id="paint29_linear_175_198" x1="91.5" y1="344" x2="91.5" y2="655.381" gradientUnits="userSpaceOnUse">
<stop stop-color="#F7DD43"/>
<stop offset="1" stop-color="#F7DD43" stop-opacity="0"/>
</linearGradient>
<linearGradient id="paint30_linear_175_198" x1="91.5" y1="344" x2="91.5" y2="655.381" gradientUnits="userSpaceOnUse">
<stop stop-color="#F7DD43"/>
<stop offset="1" stop-color="#F7DD43" stop-opacity="0"/>
</linearGradient>
<linearGradient id="paint31_linear_175_198" x1="91.5" y1="344" x2="91.5" y2="655.381" gradientUnits="userSpaceOnUse">
<stop stop-color="#F7DD43"/>
<stop offset="1" stop-color="#F7DD43" stop-opacity="0"/>
</linearGradient>
<linearGradient id="paint32_linear_175_198" x1="91.5" y1="344" x2="91.5" y2="655.381" gradientUnits="userSpaceOnUse">
<stop stop-color="#F7DD43"/>
<stop offset="1" stop-color="#F7DD43" stop-opacity="0"/>
</linearGradient>
<linearGradient id="paint33_linear_175_198" x1="91.5" y1="344" x2="91.5" y2="655.381" gradientUnits="userSpaceOnUse">
<stop stop-color="#F7DD43"/>
<stop offset="1" stop-color="#F7DD43" stop-opacity="0"/>
</linearGradient>
<linearGradient id="paint34_linear_175_198" x1="91.5" y1="344" x2="91.5" y2="655.381" gradientUnits="userSpaceOnUse">
<stop stop-color="#F7DD43"/>
<stop offset="1" stop-color="#F7DD43" stop-opacity="0"/>
</linearGradient>
<linearGradient id="paint35_linear_175_198" x1="91.5" y1="344" x2="91.5" y2="655.381" gradientUnits="userSpaceOnUse">
<stop stop-color="#F7DD43"/>
<stop offset="1" stop-color="#F7DD43" stop-opacity="0"/>
</linearGradient>
<linearGradient id="paint36_linear_175_198" x1="91.5" y1="344" x2="91.5" y2="655.381" gradientUnits="userSpaceOnUse">
<stop stop-color="#F7DD43"/>
<stop offset="1" stop-color="#F7DD43" stop-opacity="0"/>
</linearGradient>
<linearGradient id="paint37_linear_175_198" x1="91.5" y1="344" x2="91.5" y2="655.381" gradientUnits="userSpaceOnUse">
<stop stop-color="#F7DD43"/>
<stop offset="1" stop-color="#F7DD43" stop-opacity="0"/>
</linearGradient>
<linearGradient id="paint38_linear_175_198" x1="91.5" y1="344" x2="91.5" y2="655.381" gradientUnits="userSpaceOnUse">
<stop stop-color="#F7DD43"/>
<stop offset="1" stop-color="#F7DD43" stop-opacity="0"/>
</linearGradient>
<linearGradient id="paint39_linear_175_198" x1="91.5" y1="344" x2="91.5" y2="655.381" gradientUnits="userSpaceOnUse">
<stop stop-color="#F7DD43"/>
<stop offset="1" stop-color="#F7DD43" stop-opacity="0"/>
</linearGradient>
<linearGradient id="paint40_linear_175_198" x1="91.5" y1="344" x2="91.5" y2="655.381" gradientUnits="userSpaceOnUse">
<stop stop-color="#F7DD43"/>
<stop offset="1" stop-color="#F7DD43" stop-opacity="0"/>
</linearGradient>
<linearGradient id="paint41_linear_175_198" x1="91.5" y1="344" x2="91.5" y2="655.381" gradientUnits="userSpaceOnUse">
<stop stop-color="#F7DD43"/>
<stop offset="1" stop-color="#F7DD43" stop-opacity="0"/>
</linearGradient>
<linearGradient id="paint42_linear_175_198" x1="91.5" y1="344" x2="91.5" y2="655.381" gradientUnits="userSpaceOnUse">
<stop stop-color="#F7DD43"/>
<stop offset="1" stop-color="#F7DD43" stop-opacity="0"/>
</linearGradient>
<linearGradient id="paint43_linear_175_198" x1="91.5" y1="344" x2="91.5" y2="655.381" gradientUnits="userSpaceOnUse">
<stop stop-color="#F7DD43"/>
<stop offset="1" stop-color="#F7DD43" stop-opacity="0"/>
</linearGradient>
<linearGradient id="paint44_linear_175_198" x1="91.5" y1="344" x2="91.5" y2="655.381" gradientUnits="userSpaceOnUse">
<stop stop-color="#F7DD43"/>
<stop offset="1" stop-color="#F7DD43" stop-opacity="0"/>
</linearGradient>
<linearGradient id="paint45_linear_175_198" x1="91.5" y1="344" x2="91.5" y2="655.381" gradientUnits="userSpaceOnUse">
<stop stop-color="#F7DD43"/>
<stop offset="1" stop-color="#F7DD43" stop-opacity="0"/>
</linearGradient>
<linearGradient id="paint46_linear_175_198" x1="91.5" y1="344" x2="91.5" y2="655.381" gradientUnits="userSpaceOnUse">
<stop stop-color="#F7DD43"/>
<stop offset="1" stop-color="#F7DD43" stop-opacity="0"/>
</linearGradient>
<linearGradient id="paint47_linear_175_198" x1="977.5" y1="44" x2="977.5" y2="342.818" gradientUnits="userSpaceOnUse">
<stop stop-color="#F7DD43"/>
<stop offset="1" stop-color="#F7DD43" stop-opacity="0"/>
</linearGradient>
<linearGradient id="paint48_linear_175_198" x1="977.5" y1="44" x2="977.5" y2="342.818" gradientUnits="userSpaceOnUse">
<stop stop-color="#F7DD43"/>
<stop offset="1" stop-color="#F7DD43" stop-opacity="0"/>
</linearGradient>
<linearGradient id="paint49_linear_175_198" x1="977.5" y1="44" x2="977.5" y2="342.818" gradientUnits="userSpaceOnUse">
<stop stop-color="#F7DD43"/>
<stop offset="1" stop-color="#F7DD43" stop-opacity="0"/>
</linearGradient>
<linearGradient id="paint50_linear_175_198" x1="977.5" y1="44" x2="977.5" y2="342.818" gradientUnits="userSpaceOnUse">
<stop stop-color="#F7DD43"/>
<stop offset="1" stop-color="#F7DD43" stop-opacity="0"/>
</linearGradient>
<linearGradient id="paint51_linear_175_198" x1="977.5" y1="44" x2="977.5" y2="342.818" gradientUnits="userSpaceOnUse">
<stop stop-color="#F7DD43"/>
<stop offset="1" stop-color="#F7DD43" stop-opacity="0"/>
</linearGradient>
<linearGradient id="paint52_linear_175_198" x1="977.5" y1="44" x2="977.5" y2="342.818" gradientUnits="userSpaceOnUse">
<stop stop-color="#F7DD43"/>
<stop offset="1" stop-color="#F7DD43" stop-opacity="0"/>
</linearGradient>
<linearGradient id="paint53_linear_175_198" x1="977.5" y1="44" x2="977.5" y2="342.818" gradientUnits="userSpaceOnUse">
<stop stop-color="#F7DD43"/>
<stop offset="1" stop-color="#F7DD43" stop-opacity="0"/>
</linearGradient>
<linearGradient id="paint54_linear_175_198" x1="977.5" y1="44" x2="977.5" y2="342.818" gradientUnits="userSpaceOnUse">
<stop stop-color="#F7DD43"/>
<stop offset="1" stop-color="#F7DD43" stop-opacity="0"/>
</linearGradient>
<linearGradient id="paint55_linear_175_198" x1="977.5" y1="44" x2="977.5" y2="342.818" gradientUnits="userSpaceOnUse">
<stop stop-color="#F7DD43"/>
<stop offset="1" stop-color="#F7DD43" stop-opacity="0"/>
</linearGradient>
<linearGradient id="paint56_linear_175_198" x1="977.5" y1="44" x2="977.5" y2="342.818" gradientUnits="userSpaceOnUse">
<stop stop-color="#F7DD43"/>
<stop offset="1" stop-color="#F7DD43" stop-opacity="0"/>
</linearGradient>
<linearGradient id="paint57_linear_175_198" x1="977.5" y1="44" x2="977.5" y2="342.818" gradientUnits="userSpaceOnUse">
<stop stop-color="#F7DD43"/>
<stop offset="1" stop-color="#F7DD43" stop-opacity="0"/>
</linearGradient>
<linearGradient id="paint58_linear_175_198" x1="977.5" y1="44" x2="977.5" y2="342.818" gradientUnits="userSpaceOnUse">
<stop stop-color="#F7DD43"/>
<stop offset="1" stop-color="#F7DD43" stop-opacity="0"/>
</linearGradient>
<linearGradient id="paint59_linear_175_198" x1="977.5" y1="44" x2="977.5" y2="342.818" gradientUnits="userSpaceOnUse">
<stop stop-color="#F7DD43"/>
<stop offset="1" stop-color="#F7DD43" stop-opacity="0"/>
</linearGradient>
<linearGradient id="paint60_linear_175_198" x1="977.5" y1="44" x2="977.5" y2="342.818" gradientUnits="userSpaceOnUse">
<stop stop-color="#F7DD43"/>
<stop offset="1" stop-color="#F7DD43" stop-opacity="0"/>
</linearGradient>
<linearGradient id="paint61_linear_175_198" x1="977.5" y1="44" x2="977.5" y2="342.818" gradientUnits="userSpaceOnUse">
<stop stop-color="#F7DD43"/>
<stop offset="1" stop-color="#F7DD43" stop-opacity="0"/>
</linearGradient>
<linearGradient id="paint62_linear_175_198" x1="977.5" y1="44" x2="977.5" y2="342.818" gradientUnits="userSpaceOnUse">
<stop stop-color="#F7DD43"/>
<stop offset="1" stop-color="#F7DD43" stop-opacity="0"/>
</linearGradient>
<linearGradient id="paint63_linear_175_198" x1="977.5" y1="44" x2="977.5" y2="342.818" gradientUnits="userSpaceOnUse">
<stop stop-color="#F7DD43"/>
<stop offset="1" stop-color="#F7DD43" stop-opacity="0"/>
</linearGradient>
<linearGradient id="paint64_linear_175_198" x1="977.5" y1="44" x2="977.5" y2="342.818" gradientUnits="userSpaceOnUse">
<stop stop-color="#F7DD43"/>
<stop offset="1" stop-color="#F7DD43" stop-opacity="0"/>
</linearGradient>
<linearGradient id="paint65_linear_175_198" x1="977.5" y1="44" x2="977.5" y2="342.818" gradientUnits="userSpaceOnUse">
<stop stop-color="#F7DD43"/>
<stop offset="1" stop-color="#F7DD43" stop-opacity="0"/>
</linearGradient>
<linearGradient id="paint66_linear_175_198" x1="977.5" y1="44" x2="977.5" y2="342.818" gradientUnits="userSpaceOnUse">
<stop stop-color="#F7DD43"/>
<stop offset="1" stop-color="#F7DD43" stop-opacity="0"/>
</linearGradient>
<linearGradient id="paint67_linear_175_198" x1="977.5" y1="44" x2="977.5" y2="342.818" gradientUnits="userSpaceOnUse">
<stop stop-color="#F7DD43"/>
<stop offset="1" stop-color="#F7DD43" stop-opacity="0"/>
</linearGradient>
<linearGradient id="paint68_linear_175_198" x1="977.5" y1="44" x2="977.5" y2="342.818" gradientUnits="userSpaceOnUse">
<stop stop-color="#F7DD43"/>
<stop offset="1" stop-color="#F7DD43" stop-opacity="0"/>
</linearGradient>
<linearGradient id="paint69_linear_175_198" x1="977.5" y1="44" x2="977.5" y2="342.818" gradientUnits="userSpaceOnUse">
<stop stop-color="#F7DD43"/>
<stop offset="1" stop-color="#F7DD43" stop-opacity="0"/>
</linearGradient>
<linearGradient id="paint70_linear_175_198" x1="977.5" y1="44" x2="977.5" y2="342.818" gradientUnits="userSpaceOnUse">
<stop stop-color="#F7DD43"/>
<stop offset="1" stop-color="#F7DD43" stop-opacity="0"/>
</linearGradient>
<linearGradient id="paint71_linear_175_198" x1="977.5" y1="44" x2="977.5" y2="342.818" gradientUnits="userSpaceOnUse">
<stop stop-color="#F7DD43"/>
<stop offset="1" stop-color="#F7DD43" stop-opacity="0"/>
</linearGradient>
<linearGradient id="paint72_linear_175_198" x1="977.5" y1="44" x2="977.5" y2="342.818" gradientUnits="userSpaceOnUse">
<stop stop-color="#F7DD43"/>
<stop offset="1" stop-color="#F7DD43" stop-opacity="0"/>
</linearGradient>
<linearGradient id="paint73_linear_175_198" x1="977.5" y1="44" x2="977.5" y2="342.818" gradientUnits="userSpaceOnUse">
<stop stop-color="#F7DD43"/>
<stop offset="1" stop-color="#F7DD43" stop-opacity="0"/>
</linearGradient>
<linearGradient id="paint74_linear_175_198" x1="977.5" y1="44" x2="977.5" y2="342.818" gradientUnits="userSpaceOnUse">
<stop stop-color="#F7DD43"/>
<stop offset="1" stop-color="#F7DD43" stop-opacity="0"/>
</linearGradient>
<linearGradient id="paint75_linear_175_198" x1="977.5" y1="44" x2="977.5" y2="342.818" gradientUnits="userSpaceOnUse">
<stop stop-color="#F7DD43"/>
<stop offset="1" stop-color="#F7DD43" stop-opacity="0"/>
</linearGradient>
<linearGradient id="paint76_linear_175_198" x1="977.5" y1="44" x2="977.5" y2="342.818" gradientUnits="userSpaceOnUse">
<stop stop-color="#F7DD43"/>
<stop offset="1" stop-color="#F7DD43" stop-opacity="0"/>
</linearGradient>
<linearGradient id="paint77_linear_175_198" x1="977.5" y1="44" x2="977.5" y2="342.818" gradientUnits="userSpaceOnUse">
<stop stop-color="#F7DD43"/>
<stop offset="1" stop-color="#F7DD43" stop-opacity="0"/>
</linearGradient>
<linearGradient id="paint78_linear_175_198" x1="977.5" y1="44" x2="977.5" y2="342.818" gradientUnits="userSpaceOnUse">
<stop stop-color="#F7DD43"/>
<stop offset="1" stop-color="#F7DD43" stop-opacity="0"/>
</linearGradient>
<linearGradient id="paint79_linear_175_198" x1="977.5" y1="44" x2="977.5" y2="342.818" gradientUnits="userSpaceOnUse">
<stop stop-color="#F7DD43"/>
<stop offset="1" stop-color="#F7DD43" stop-opacity="0"/>
</linearGradient>
<linearGradient id="paint80_linear_175_198" x1="977.5" y1="44" x2="977.5" y2="342.818" gradientUnits="userSpaceOnUse">
<stop stop-color="#F7DD43"/>
<stop offset="1" stop-color="#F7DD43" stop-opacity="0"/>
</linearGradient>
<linearGradient id="paint81_linear_175_198" x1="977.5" y1="44" x2="977.5" y2="342.818" gradientUnits="userSpaceOnUse">
<stop stop-color="#F7DD43"/>
<stop offset="1" stop-color="#F7DD43" stop-opacity="0"/>
</linearGradient>
<linearGradient id="paint82_linear_175_198" x1="977.5" y1="44" x2="977.5" y2="342.818" gradientUnits="userSpaceOnUse">
<stop stop-color="#F7DD43"/>
<stop offset="1" stop-color="#F7DD43" stop-opacity="0"/>
</linearGradient>
<linearGradient id="paint83_linear_175_198" x1="977.5" y1="44" x2="977.5" y2="342.818" gradientUnits="userSpaceOnUse">
<stop stop-color="#F7DD43"/>
<stop offset="1" stop-color="#F7DD43" stop-opacity="0"/>
</linearGradient>
<linearGradient id="paint84_linear_175_198" x1="977.5" y1="44" x2="977.5" y2="342.818" gradientUnits="userSpaceOnUse">
<stop stop-color="#F7DD43"/>
<stop offset="1" stop-color="#F7DD43" stop-opacity="0"/>
</linearGradient>
<linearGradient id="paint85_linear_175_198" x1="977.5" y1="44" x2="977.5" y2="342.818" gradientUnits="userSpaceOnUse">
<stop stop-color="#F7DD43"/>
<stop offset="1" stop-color="#F7DD43" stop-opacity="0"/>
</linearGradient>
<linearGradient id="paint86_linear_175_198" x1="977.5" y1="44" x2="977.5" y2="342.818" gradientUnits="userSpaceOnUse">
<stop stop-color="#F7DD43"/>
<stop offset="1" stop-color="#F7DD43" stop-opacity="0"/>
</linearGradient>
<linearGradient id="paint87_linear_175_198" x1="977.5" y1="44" x2="977.5" y2="342.818" gradientUnits="userSpaceOnUse">
<stop stop-color="#F7DD43"/>
<stop offset="1" stop-color="#F7DD43" stop-opacity="0"/>
</linearGradient>
<linearGradient id="paint88_linear_175_198" x1="977.5" y1="44" x2="977.5" y2="342.818" gradientUnits="userSpaceOnUse">
<stop stop-color="#F7DD43"/>
<stop offset="1" stop-color="#F7DD43" stop-opacity="0"/>
</linearGradient>
<linearGradient id="paint89_linear_175_198" x1="977.5" y1="44" x2="977.5" y2="342.818" gradientUnits="userSpaceOnUse">
<stop stop-color="#F7DD43"/>
<stop offset="1" stop-color="#F7DD43" stop-opacity="0"/>
</linearGradient>
<linearGradient id="paint90_linear_175_198" x1="977.5" y1="44" x2="977.5" y2="342.818" gradientUnits="userSpaceOnUse">
<stop stop-color="#F7DD43"/>
<stop offset="1" stop-color="#F7DD43" stop-opacity="0"/>
</linearGradient>
<linearGradient id="paint91_linear_175_198" x1="977.5" y1="44" x2="977.5" y2="342.818" gradientUnits="userSpaceOnUse">
<stop stop-color="#F7DD43"/>
<stop offset="1" stop-color="#F7DD43" stop-opacity="0"/>
</linearGradient>
<linearGradient id="paint92_linear_175_198" x1="977.5" y1="44" x2="977.5" y2="342.818" gradientUnits="userSpaceOnUse">
<stop stop-color="#F7DD43"/>
<stop offset="1" stop-color="#F7DD43" stop-opacity="0"/>
</linearGradient>
<linearGradient id="paint93_linear_175_198" x1="977.5" y1="44" x2="977.5" y2="342.818" gradientUnits="userSpaceOnUse">
<stop stop-color="#F7DD43"/>
<stop offset="1" stop-color="#F7DD43" stop-opacity="0"/>
</linearGradient>
</defs>
</svg>
